<?xml version="1.0" standalone="no"?>
<!DOCTYPE svg PUBLIC "-//W3C//DTD SVG 20010904//EN"
 "http://www.w3.org/TR/2001/REC-SVG-20010904/DTD/svg10.dtd">
<svg version="1.0" xmlns="http://www.w3.org/2000/svg"
 width="53.000000pt" height="36.000000pt" viewBox="0 0 53.000000 36.000000"
 preserveAspectRatio="xMidYMid meet">
<metadata>
Created by potrace 1.16, written by Peter Selinger 2001-2019
</metadata>
<g transform="translate(0.000000,36.000000) scale(0.100000,-0.100000)"
fill="#000000" stroke="none">
<path d="M160 351 c-159 -49 -208 -188 -100 -285 108 -97 364 -82 442 26 31
44 35 123 9 165 -24 38 -82 77 -137 92 -44 12 -176 13 -214 2z m251 -28 c24
-11 59 -36 77 -57 45 -51 44 -93 -4 -145 -49 -55 -109 -76 -214 -76 -105 0
-165 21 -214 76 -36 39 -47 79 -23 79 9 0 9 2 -1 9 -12 7 -11 14 3 41 9 18 25
35 36 37 10 3 19 9 19 13 0 8 61 33 105 44 43 11 173 -2 216 -21z"/>
</g>
</svg>
